<mxfile host="Electron" agent="Mozilla/5.0 (Macintosh; Intel Mac OS X 10_15_7) AppleWebKit/537.36 (KHTML, like Gecko) draw.io/24.7.8 Chrome/128.0.6613.36 Electron/32.0.1 Safari/537.36" version="24.7.8">
  <diagram name="Page-1" id="ehOJPlqRY2JU0V6RcQEP">
    <mxGraphModel dx="876" dy="569" grid="1" gridSize="10" guides="1" tooltips="1" connect="1" arrows="1" fold="1" page="1" pageScale="1" pageWidth="850" pageHeight="1100" math="0" shadow="0">
      <root>
        <mxCell id="0" />
        <mxCell id="1" parent="0" />
        <mxCell id="WF0Gk_M_9cpCsSOAhZgW-74" value="minikube" style="rounded=0;whiteSpace=wrap;html=1;fillColor=#dae8fc;strokeColor=#6c8ebf;" vertex="1" parent="1">
          <mxGeometry x="350" y="10" width="120" height="60" as="geometry" />
        </mxCell>
        <mxCell id="WF0Gk_M_9cpCsSOAhZgW-76" value="host" style="rounded=0;whiteSpace=wrap;html=1;fillColor=#f5f5f5;strokeColor=#666666;fontColor=#333333;align=left;" vertex="1" parent="1">
          <mxGeometry x="180" y="140" width="600" height="400" as="geometry" />
        </mxCell>
        <mxCell id="WF0Gk_M_9cpCsSOAhZgW-77" value="docker" style="rounded=0;whiteSpace=wrap;html=1;fillColor=#d5e8d4;strokeColor=#82b366;" vertex="1" parent="1">
          <mxGeometry x="320" y="150" width="80" height="150" as="geometry" />
        </mxCell>
        <mxCell id="WF0Gk_M_9cpCsSOAhZgW-79" style="rounded=0;orthogonalLoop=1;jettySize=auto;html=1;" edge="1" parent="1" source="WF0Gk_M_9cpCsSOAhZgW-78" target="WF0Gk_M_9cpCsSOAhZgW-77">
          <mxGeometry relative="1" as="geometry" />
        </mxCell>
        <mxCell id="WF0Gk_M_9cpCsSOAhZgW-78" value="minikube&lt;br&gt;&lt;br&gt;cluster" style="rounded=0;whiteSpace=wrap;html=1;fillColor=#dae8fc;strokeColor=#6c8ebf;" vertex="1" parent="1">
          <mxGeometry x="540" y="150" width="230" height="380" as="geometry" />
        </mxCell>
        <mxCell id="WF0Gk_M_9cpCsSOAhZgW-80" value="kubectl" style="rounded=0;whiteSpace=wrap;html=1;" vertex="1" parent="1">
          <mxGeometry x="190" y="430" width="120" height="20" as="geometry" />
        </mxCell>
        <mxCell id="WF0Gk_M_9cpCsSOAhZgW-81" style="rounded=0;orthogonalLoop=1;jettySize=auto;html=1;entryX=0.012;entryY=0.576;entryDx=0;entryDy=0;entryPerimeter=0;" edge="1" parent="1" source="WF0Gk_M_9cpCsSOAhZgW-80" target="WF0Gk_M_9cpCsSOAhZgW-78">
          <mxGeometry relative="1" as="geometry" />
        </mxCell>
        <mxCell id="WF0Gk_M_9cpCsSOAhZgW-82" value="images" style="rounded=0;whiteSpace=wrap;html=1;" vertex="1" parent="1">
          <mxGeometry x="220" y="170" width="90" height="110" as="geometry" />
        </mxCell>
        <mxCell id="WF0Gk_M_9cpCsSOAhZgW-83" value="image" style="shape=cube;whiteSpace=wrap;html=1;boundedLbl=1;backgroundOutline=1;darkOpacity=0.05;darkOpacity2=0.1;size=10;fillColor=#f8cecc;strokeColor=#b85450;" vertex="1" parent="1">
          <mxGeometry x="220" y="170" width="50" height="50" as="geometry" />
        </mxCell>
        <mxCell id="WF0Gk_M_9cpCsSOAhZgW-84" value="cache" style="rounded=0;whiteSpace=wrap;html=1;fillColor=#fff2cc;strokeColor=#d6b656;" vertex="1" parent="1">
          <mxGeometry x="510" y="160" width="70" height="110" as="geometry" />
        </mxCell>
        <mxCell id="WF0Gk_M_9cpCsSOAhZgW-85" value="image" style="shape=cube;whiteSpace=wrap;html=1;boundedLbl=1;backgroundOutline=1;darkOpacity=0.05;darkOpacity2=0.1;size=10;" vertex="1" parent="1">
          <mxGeometry x="510" y="160" width="50" height="40" as="geometry" />
        </mxCell>
        <mxCell id="WF0Gk_M_9cpCsSOAhZgW-86" value="image" style="shape=cube;whiteSpace=wrap;html=1;boundedLbl=1;backgroundOutline=1;darkOpacity=0.05;darkOpacity2=0.1;size=10;fillColor=#f8cecc;strokeColor=#b85450;" vertex="1" parent="1">
          <mxGeometry x="510" y="240" width="50" height="30" as="geometry" />
        </mxCell>
        <mxCell id="WF0Gk_M_9cpCsSOAhZgW-90" style="rounded=0;orthogonalLoop=1;jettySize=auto;html=1;entryX=0;entryY=0;entryDx=0;entryDy=10;entryPerimeter=0;" edge="1" parent="1" source="WF0Gk_M_9cpCsSOAhZgW-83" target="WF0Gk_M_9cpCsSOAhZgW-86">
          <mxGeometry relative="1" as="geometry" />
        </mxCell>
        <mxCell id="WF0Gk_M_9cpCsSOAhZgW-91" value="minikube load image&amp;nbsp;" style="edgeLabel;html=1;align=center;verticalAlign=middle;resizable=0;points=[];" vertex="1" connectable="0" parent="WF0Gk_M_9cpCsSOAhZgW-90">
          <mxGeometry x="0.4745" y="2" relative="1" as="geometry">
            <mxPoint as="offset" />
          </mxGeometry>
        </mxCell>
        <mxCell id="WF0Gk_M_9cpCsSOAhZgW-92" value="minikube" style="rounded=0;whiteSpace=wrap;html=1;fillColor=#d5e8d4;strokeColor=#82b366;" vertex="1" parent="1">
          <mxGeometry x="115" y="700" width="620" height="320" as="geometry" />
        </mxCell>
        <mxCell id="WF0Gk_M_9cpCsSOAhZgW-102" style="edgeStyle=orthogonalEdgeStyle;rounded=0;orthogonalLoop=1;jettySize=auto;html=1;" edge="1" parent="1" source="WF0Gk_M_9cpCsSOAhZgW-94" target="WF0Gk_M_9cpCsSOAhZgW-101">
          <mxGeometry relative="1" as="geometry">
            <Array as="points">
              <mxPoint x="180" y="1060" />
              <mxPoint x="402" y="1060" />
            </Array>
          </mxGeometry>
        </mxCell>
        <mxCell id="WF0Gk_M_9cpCsSOAhZgW-109" style="edgeStyle=orthogonalEdgeStyle;rounded=0;orthogonalLoop=1;jettySize=auto;html=1;entryX=0;entryY=0.5;entryDx=0;entryDy=0;" edge="1" parent="1" source="WF0Gk_M_9cpCsSOAhZgW-94" target="WF0Gk_M_9cpCsSOAhZgW-108">
          <mxGeometry relative="1" as="geometry">
            <Array as="points">
              <mxPoint x="220" y="950" />
              <mxPoint x="220" y="850" />
            </Array>
          </mxGeometry>
        </mxCell>
        <mxCell id="WF0Gk_M_9cpCsSOAhZgW-94" value="backend" style="aspect=fixed;sketch=0;html=1;dashed=0;whitespace=wrap;verticalLabelPosition=bottom;verticalAlign=top;fillColor=#2875E2;strokeColor=#ffffff;points=[[0.005,0.63,0],[0.1,0.2,0],[0.9,0.2,0],[0.5,0,0],[0.995,0.63,0],[0.72,0.99,0],[0.5,1,0],[0.28,0.99,0]];shape=mxgraph.kubernetes.icon2;kubernetesLabel=1;prIcon=pod" vertex="1" parent="1">
          <mxGeometry x="155" y="926" width="50" height="48" as="geometry" />
        </mxCell>
        <mxCell id="WF0Gk_M_9cpCsSOAhZgW-96" value="db" style="aspect=fixed;sketch=0;html=1;dashed=0;whitespace=wrap;verticalLabelPosition=bottom;verticalAlign=top;fillColor=#2875E2;strokeColor=#ffffff;points=[[0.005,0.63,0],[0.1,0.2,0],[0.9,0.2,0],[0.5,0,0],[0.995,0.63,0],[0.72,0.99,0],[0.5,1,0],[0.28,0.99,0]];shape=mxgraph.kubernetes.icon2;kubernetesLabel=1;prIcon=pod" vertex="1" parent="1">
          <mxGeometry x="625" y="720" width="50" height="48" as="geometry" />
        </mxCell>
        <mxCell id="WF0Gk_M_9cpCsSOAhZgW-97" value="cluster ip" style="aspect=fixed;sketch=0;html=1;dashed=0;whitespace=wrap;verticalLabelPosition=bottom;verticalAlign=top;fillColor=#2875E2;strokeColor=#ffffff;points=[[0.005,0.63,0],[0.1,0.2,0],[0.9,0.2,0],[0.5,0,0],[0.995,0.63,0],[0.72,0.99,0],[0.5,1,0],[0.28,0.99,0]];shape=mxgraph.kubernetes.icon2;prIcon=svc" vertex="1" parent="1">
          <mxGeometry x="550" y="720" width="50" height="48" as="geometry" />
        </mxCell>
        <mxCell id="WF0Gk_M_9cpCsSOAhZgW-98" style="edgeStyle=orthogonalEdgeStyle;rounded=0;orthogonalLoop=1;jettySize=auto;html=1;entryX=0.1;entryY=0.5;entryDx=0;entryDy=0;entryPerimeter=0;" edge="1" parent="1" source="WF0Gk_M_9cpCsSOAhZgW-97" target="WF0Gk_M_9cpCsSOAhZgW-96">
          <mxGeometry relative="1" as="geometry" />
        </mxCell>
        <mxCell id="WF0Gk_M_9cpCsSOAhZgW-99" value="nodeport" style="aspect=fixed;sketch=0;html=1;dashed=0;whitespace=wrap;verticalLabelPosition=bottom;verticalAlign=top;fillColor=#2875E2;strokeColor=#ffffff;points=[[0.005,0.63,0],[0.1,0.2,0],[0.9,0.2,0],[0.5,0,0],[0.995,0.63,0],[0.72,0.99,0],[0.5,1,0],[0.28,0.99,0]];shape=mxgraph.kubernetes.icon2;prIcon=svc" vertex="1" parent="1">
          <mxGeometry x="225" y="926" width="50" height="48" as="geometry" />
        </mxCell>
        <mxCell id="WF0Gk_M_9cpCsSOAhZgW-101" value="backend" style="aspect=fixed;sketch=0;html=1;dashed=0;whitespace=wrap;verticalLabelPosition=bottom;verticalAlign=top;fillColor=#2875E2;strokeColor=#ffffff;points=[[0.005,0.63,0],[0.1,0.2,0],[0.9,0.2,0],[0.5,0,0],[0.995,0.63,0],[0.72,0.99,0],[0.5,1,0],[0.28,0.99,0]];shape=mxgraph.kubernetes.icon2;kubernetesLabel=1;prIcon=pod" vertex="1" parent="1">
          <mxGeometry x="220" y="1110" width="364.58" height="350" as="geometry" />
        </mxCell>
        <mxCell id="WF0Gk_M_9cpCsSOAhZgW-103" value="db connect&lt;br&gt;host 127.0.0.1" style="rounded=0;whiteSpace=wrap;html=1;" vertex="1" parent="1">
          <mxGeometry x="320" y="1330" width="170" height="100" as="geometry" />
        </mxCell>
        <mxCell id="WF0Gk_M_9cpCsSOAhZgW-105" style="edgeStyle=orthogonalEdgeStyle;rounded=0;orthogonalLoop=1;jettySize=auto;html=1;entryX=0.005;entryY=0.63;entryDx=0;entryDy=0;entryPerimeter=0;" edge="1" parent="1" source="WF0Gk_M_9cpCsSOAhZgW-94" target="WF0Gk_M_9cpCsSOAhZgW-97">
          <mxGeometry relative="1" as="geometry">
            <Array as="points">
              <mxPoint x="180" y="750" />
            </Array>
          </mxGeometry>
        </mxCell>
        <mxCell id="WF0Gk_M_9cpCsSOAhZgW-106" value="host" style="edgeLabel;html=1;align=center;verticalAlign=middle;resizable=0;points=[];" vertex="1" connectable="0" parent="WF0Gk_M_9cpCsSOAhZgW-105">
          <mxGeometry x="0.1236" y="-2" relative="1" as="geometry">
            <mxPoint as="offset" />
          </mxGeometry>
        </mxCell>
        <mxCell id="WF0Gk_M_9cpCsSOAhZgW-107" value="configmap" style="aspect=fixed;sketch=0;html=1;dashed=0;whitespace=wrap;verticalLabelPosition=bottom;verticalAlign=top;fillColor=#2875E2;strokeColor=#ffffff;points=[[0.005,0.63,0],[0.1,0.2,0],[0.9,0.2,0],[0.5,0,0],[0.995,0.63,0],[0.72,0.99,0],[0.5,1,0],[0.28,0.99,0]];shape=mxgraph.kubernetes.icon2;prIcon=c_m" vertex="1" parent="1">
          <mxGeometry x="520" y="830" width="129.17" height="124" as="geometry" />
        </mxCell>
        <mxCell id="WF0Gk_M_9cpCsSOAhZgW-108" value="dbhsot: localhost" style="rounded=0;whiteSpace=wrap;html=1;" vertex="1" parent="1">
          <mxGeometry x="520" y="840" width="140.41" height="20" as="geometry" />
        </mxCell>
        <mxCell id="WF0Gk_M_9cpCsSOAhZgW-111" style="edgeStyle=orthogonalEdgeStyle;rounded=0;orthogonalLoop=1;jettySize=auto;html=1;entryX=0.224;entryY=1.011;entryDx=0;entryDy=0;entryPerimeter=0;" edge="1" parent="1" source="WF0Gk_M_9cpCsSOAhZgW-99" target="WF0Gk_M_9cpCsSOAhZgW-92">
          <mxGeometry relative="1" as="geometry">
            <Array as="points">
              <mxPoint x="250" y="980" />
              <mxPoint x="290" y="980" />
              <mxPoint x="290" y="1024" />
            </Array>
          </mxGeometry>
        </mxCell>
        <mxCell id="WF0Gk_M_9cpCsSOAhZgW-112" value="30500" style="edgeLabel;html=1;align=center;verticalAlign=middle;resizable=0;points=[];" vertex="1" connectable="0" parent="WF0Gk_M_9cpCsSOAhZgW-111">
          <mxGeometry x="0.9238" relative="1" as="geometry">
            <mxPoint as="offset" />
          </mxGeometry>
        </mxCell>
        <mxCell id="WF0Gk_M_9cpCsSOAhZgW-118" style="edgeStyle=orthogonalEdgeStyle;rounded=0;orthogonalLoop=1;jettySize=auto;html=1;" edge="1" parent="1" source="WF0Gk_M_9cpCsSOAhZgW-113" target="WF0Gk_M_9cpCsSOAhZgW-99">
          <mxGeometry relative="1" as="geometry" />
        </mxCell>
        <mxCell id="WF0Gk_M_9cpCsSOAhZgW-119" value="backend-service.default.svc.cluster.local" style="edgeLabel;html=1;align=center;verticalAlign=middle;resizable=0;points=[];" vertex="1" connectable="0" parent="WF0Gk_M_9cpCsSOAhZgW-118">
          <mxGeometry x="0.295" relative="1" as="geometry">
            <mxPoint x="56" y="-10" as="offset" />
          </mxGeometry>
        </mxCell>
        <mxCell id="WF0Gk_M_9cpCsSOAhZgW-113" value="frontend" style="aspect=fixed;sketch=0;html=1;dashed=0;whitespace=wrap;verticalLabelPosition=bottom;verticalAlign=top;fillColor=#2875E2;strokeColor=#ffffff;points=[[0.005,0.63,0],[0.1,0.2,0],[0.9,0.2,0],[0.5,0,0],[0.995,0.63,0],[0.72,0.99,0],[0.5,1,0],[0.28,0.99,0]];shape=mxgraph.kubernetes.icon2;kubernetesLabel=1;prIcon=pod" vertex="1" parent="1">
          <mxGeometry x="390" y="950" width="50" height="48" as="geometry" />
        </mxCell>
        <mxCell id="WF0Gk_M_9cpCsSOAhZgW-114" value="nodeport" style="aspect=fixed;sketch=0;html=1;dashed=0;whitespace=wrap;verticalLabelPosition=bottom;verticalAlign=top;fillColor=#2875E2;strokeColor=#ffffff;points=[[0.005,0.63,0],[0.1,0.2,0],[0.9,0.2,0],[0.5,0,0],[0.995,0.63,0],[0.72,0.99,0],[0.5,1,0],[0.28,0.99,0]];shape=mxgraph.kubernetes.icon2;prIcon=svc" vertex="1" parent="1">
          <mxGeometry x="480" y="950" width="50" height="48" as="geometry" />
        </mxCell>
        <mxCell id="WF0Gk_M_9cpCsSOAhZgW-115" style="edgeStyle=orthogonalEdgeStyle;rounded=0;orthogonalLoop=1;jettySize=auto;html=1;entryX=0.705;entryY=1.005;entryDx=0;entryDy=0;entryPerimeter=0;" edge="1" parent="1" source="WF0Gk_M_9cpCsSOAhZgW-114" target="WF0Gk_M_9cpCsSOAhZgW-92">
          <mxGeometry relative="1" as="geometry" />
        </mxCell>
        <mxCell id="WF0Gk_M_9cpCsSOAhZgW-116" value="30080" style="edgeLabel;html=1;align=center;verticalAlign=middle;resizable=0;points=[];" vertex="1" connectable="0" parent="WF0Gk_M_9cpCsSOAhZgW-115">
          <mxGeometry x="0.8832" y="2" relative="1" as="geometry">
            <mxPoint as="offset" />
          </mxGeometry>
        </mxCell>
        <mxCell id="WF0Gk_M_9cpCsSOAhZgW-117" style="edgeStyle=orthogonalEdgeStyle;rounded=0;orthogonalLoop=1;jettySize=auto;html=1;entryX=0.733;entryY=0.507;entryDx=0;entryDy=0;entryPerimeter=0;" edge="1" parent="1" source="WF0Gk_M_9cpCsSOAhZgW-114" target="WF0Gk_M_9cpCsSOAhZgW-113">
          <mxGeometry relative="1" as="geometry" />
        </mxCell>
        <mxCell id="WF0Gk_M_9cpCsSOAhZgW-143" value="ui" style="rounded=0;whiteSpace=wrap;html=1;" vertex="1" parent="1">
          <mxGeometry x="70" y="1590" width="120" height="60" as="geometry" />
        </mxCell>
        <mxCell id="WF0Gk_M_9cpCsSOAhZgW-150" value="api" style="rounded=0;whiteSpace=wrap;html=1;" vertex="1" parent="1">
          <mxGeometry x="70" y="1690" width="120" height="60" as="geometry" />
        </mxCell>
        <mxCell id="WF0Gk_M_9cpCsSOAhZgW-151" value="db" style="rounded=0;whiteSpace=wrap;html=1;" vertex="1" parent="1">
          <mxGeometry x="70" y="1770" width="120" height="60" as="geometry" />
        </mxCell>
        <mxCell id="WF0Gk_M_9cpCsSOAhZgW-156" style="rounded=0;orthogonalLoop=1;jettySize=auto;html=1;" edge="1" parent="1" source="WF0Gk_M_9cpCsSOAhZgW-152" target="WF0Gk_M_9cpCsSOAhZgW-153">
          <mxGeometry relative="1" as="geometry" />
        </mxCell>
        <mxCell id="WF0Gk_M_9cpCsSOAhZgW-157" style="edgeStyle=orthogonalEdgeStyle;rounded=0;orthogonalLoop=1;jettySize=auto;html=1;" edge="1" parent="1" source="WF0Gk_M_9cpCsSOAhZgW-152" target="WF0Gk_M_9cpCsSOAhZgW-154">
          <mxGeometry relative="1" as="geometry" />
        </mxCell>
        <mxCell id="WF0Gk_M_9cpCsSOAhZgW-158" style="rounded=0;orthogonalLoop=1;jettySize=auto;html=1;" edge="1" parent="1" source="WF0Gk_M_9cpCsSOAhZgW-152" target="WF0Gk_M_9cpCsSOAhZgW-155">
          <mxGeometry relative="1" as="geometry" />
        </mxCell>
        <mxCell id="WF0Gk_M_9cpCsSOAhZgW-175" value=":90" style="edgeLabel;html=1;align=center;verticalAlign=middle;resizable=0;points=[];" vertex="1" connectable="0" parent="WF0Gk_M_9cpCsSOAhZgW-158">
          <mxGeometry x="0.2044" y="-1" relative="1" as="geometry">
            <mxPoint as="offset" />
          </mxGeometry>
        </mxCell>
        <mxCell id="WF0Gk_M_9cpCsSOAhZgW-152" value="client" style="rounded=0;whiteSpace=wrap;html=1;" vertex="1" parent="1">
          <mxGeometry x="445" y="1590" width="120" height="60" as="geometry" />
        </mxCell>
        <mxCell id="WF0Gk_M_9cpCsSOAhZgW-171" style="edgeStyle=orthogonalEdgeStyle;rounded=0;orthogonalLoop=1;jettySize=auto;html=1;" edge="1" parent="1" source="WF0Gk_M_9cpCsSOAhZgW-153" target="WF0Gk_M_9cpCsSOAhZgW-154">
          <mxGeometry relative="1" as="geometry" />
        </mxCell>
        <mxCell id="WF0Gk_M_9cpCsSOAhZgW-153" value="api" style="rounded=0;whiteSpace=wrap;html=1;" vertex="1" parent="1">
          <mxGeometry x="300" y="1770" width="120" height="60" as="geometry" />
        </mxCell>
        <mxCell id="WF0Gk_M_9cpCsSOAhZgW-172" style="edgeStyle=orthogonalEdgeStyle;rounded=0;orthogonalLoop=1;jettySize=auto;html=1;" edge="1" parent="1" source="WF0Gk_M_9cpCsSOAhZgW-154" target="WF0Gk_M_9cpCsSOAhZgW-155">
          <mxGeometry relative="1" as="geometry" />
        </mxCell>
        <mxCell id="WF0Gk_M_9cpCsSOAhZgW-173" style="edgeStyle=orthogonalEdgeStyle;rounded=0;orthogonalLoop=1;jettySize=auto;html=1;entryX=0.75;entryY=1;entryDx=0;entryDy=0;" edge="1" parent="1" source="WF0Gk_M_9cpCsSOAhZgW-154" target="WF0Gk_M_9cpCsSOAhZgW-153">
          <mxGeometry relative="1" as="geometry">
            <Array as="points">
              <mxPoint x="500" y="1850" />
              <mxPoint x="390" y="1850" />
            </Array>
          </mxGeometry>
        </mxCell>
        <mxCell id="WF0Gk_M_9cpCsSOAhZgW-154" value="api" style="rounded=0;whiteSpace=wrap;html=1;" vertex="1" parent="1">
          <mxGeometry x="445" y="1770" width="120" height="60" as="geometry" />
        </mxCell>
        <mxCell id="WF0Gk_M_9cpCsSOAhZgW-170" style="edgeStyle=orthogonalEdgeStyle;rounded=0;orthogonalLoop=1;jettySize=auto;html=1;" edge="1" parent="1" source="WF0Gk_M_9cpCsSOAhZgW-155" target="WF0Gk_M_9cpCsSOAhZgW-153">
          <mxGeometry relative="1" as="geometry">
            <Array as="points">
              <mxPoint x="655" y="1860" />
              <mxPoint x="360" y="1860" />
            </Array>
          </mxGeometry>
        </mxCell>
        <mxCell id="WF0Gk_M_9cpCsSOAhZgW-155" value="api" style="rounded=0;whiteSpace=wrap;html=1;" vertex="1" parent="1">
          <mxGeometry x="595" y="1770" width="120" height="60" as="geometry" />
        </mxCell>
        <mxCell id="WF0Gk_M_9cpCsSOAhZgW-159" style="rounded=0;orthogonalLoop=1;jettySize=auto;html=1;" edge="1" parent="1" source="WF0Gk_M_9cpCsSOAhZgW-152" target="WF0Gk_M_9cpCsSOAhZgW-154">
          <mxGeometry relative="1" as="geometry">
            <mxPoint x="505" y="1650" as="sourcePoint" />
            <mxPoint x="505" y="1770" as="targetPoint" />
          </mxGeometry>
        </mxCell>
        <mxCell id="WF0Gk_M_9cpCsSOAhZgW-174" value=":80" style="edgeLabel;html=1;align=center;verticalAlign=middle;resizable=0;points=[];" vertex="1" connectable="0" parent="WF0Gk_M_9cpCsSOAhZgW-159">
          <mxGeometry x="-0.3611" y="-2" relative="1" as="geometry">
            <mxPoint as="offset" />
          </mxGeometry>
        </mxCell>
        <mxCell id="WF0Gk_M_9cpCsSOAhZgW-162" style="edgeStyle=orthogonalEdgeStyle;rounded=0;orthogonalLoop=1;jettySize=auto;html=1;" edge="1" parent="1" source="WF0Gk_M_9cpCsSOAhZgW-160" target="WF0Gk_M_9cpCsSOAhZgW-161">
          <mxGeometry relative="1" as="geometry" />
        </mxCell>
        <mxCell id="WF0Gk_M_9cpCsSOAhZgW-176" value="/images" style="edgeLabel;html=1;align=center;verticalAlign=middle;resizable=0;points=[];" vertex="1" connectable="0" parent="WF0Gk_M_9cpCsSOAhZgW-162">
          <mxGeometry x="-0.3" relative="1" as="geometry">
            <mxPoint as="offset" />
          </mxGeometry>
        </mxCell>
        <mxCell id="WF0Gk_M_9cpCsSOAhZgW-160" value="client" style="rounded=0;whiteSpace=wrap;html=1;" vertex="1" parent="1">
          <mxGeometry x="445" y="1910" width="120" height="60" as="geometry" />
        </mxCell>
        <mxCell id="WF0Gk_M_9cpCsSOAhZgW-167" style="rounded=0;orthogonalLoop=1;jettySize=auto;html=1;" edge="1" parent="1" source="WF0Gk_M_9cpCsSOAhZgW-161" target="WF0Gk_M_9cpCsSOAhZgW-163">
          <mxGeometry relative="1" as="geometry" />
        </mxCell>
        <mxCell id="WF0Gk_M_9cpCsSOAhZgW-168" style="rounded=0;orthogonalLoop=1;jettySize=auto;html=1;" edge="1" parent="1" source="WF0Gk_M_9cpCsSOAhZgW-161" target="WF0Gk_M_9cpCsSOAhZgW-164">
          <mxGeometry relative="1" as="geometry" />
        </mxCell>
        <mxCell id="WF0Gk_M_9cpCsSOAhZgW-169" style="rounded=0;orthogonalLoop=1;jettySize=auto;html=1;" edge="1" parent="1" source="WF0Gk_M_9cpCsSOAhZgW-161" target="WF0Gk_M_9cpCsSOAhZgW-165">
          <mxGeometry relative="1" as="geometry" />
        </mxCell>
        <mxCell id="WF0Gk_M_9cpCsSOAhZgW-161" value="gateway" style="rounded=0;whiteSpace=wrap;html=1;" vertex="1" parent="1">
          <mxGeometry x="445" y="2030" width="120" height="60" as="geometry" />
        </mxCell>
        <mxCell id="WF0Gk_M_9cpCsSOAhZgW-163" value="api" style="rounded=0;whiteSpace=wrap;html=1;" vertex="1" parent="1">
          <mxGeometry x="320" y="2120" width="120" height="60" as="geometry" />
        </mxCell>
        <mxCell id="WF0Gk_M_9cpCsSOAhZgW-164" value="api" style="rounded=0;whiteSpace=wrap;html=1;fontStyle=1" vertex="1" parent="1">
          <mxGeometry x="475" y="2120" width="120" height="60" as="geometry" />
        </mxCell>
        <mxCell id="WF0Gk_M_9cpCsSOAhZgW-165" value="api" style="rounded=0;whiteSpace=wrap;html=1;" vertex="1" parent="1">
          <mxGeometry x="640" y="2120" width="120" height="60" as="geometry" />
        </mxCell>
        <mxCell id="WF0Gk_M_9cpCsSOAhZgW-181" value="gateway" style="rounded=0;whiteSpace=wrap;html=1;" vertex="1" parent="1">
          <mxGeometry x="584.58" y="2030" width="50" height="60" as="geometry" />
        </mxCell>
        <mxCell id="WF0Gk_M_9cpCsSOAhZgW-182" value="gateway" style="rounded=0;whiteSpace=wrap;html=1;" vertex="1" parent="1">
          <mxGeometry x="380" y="2030" width="45" height="60" as="geometry" />
        </mxCell>
        <mxCell id="WF0Gk_M_9cpCsSOAhZgW-183" value="" style="rounded=0;whiteSpace=wrap;html=1;" vertex="1" parent="1">
          <mxGeometry x="360" y="2240" width="120" height="60" as="geometry" />
        </mxCell>
      </root>
    </mxGraphModel>
  </diagram>
</mxfile>
